<svg width="2500" height="2500" viewBox="0 0 2500 2500" fill="none" xmlns="http://www.w3.org/2000/svg">
<path fill-rule="evenodd" clip-rule="evenodd" d="M527.224 110.295L1975.6 111.151C2202.94 111.151 2390.28 298.473 2389.41 526.676V1975.04C2389.41 2203.25 2202.09 2389.72 1973.9 2389.72L524.669 2388.86C296.466 2388.03 110 2201.57 110 1973.35L111.699 524.964C111.699 296.774 298.178 109.439 527.224 110.295Z" fill="#33348E"/>
<path fill-rule="evenodd" clip-rule="evenodd" d="M2068.41 1149.95H1903.23L1835.11 1279.38H1950.9L2068.41 1149.95ZM2178.25 1360.28H2017.32V1707.68C2017.32 1814.12 1945.78 1844.77 1893.02 1844.77C1842.76 1844.77 1787.41 1826.03 1788.27 1733.2V1360.27H1627.35L1626.49 1756.2C1626.49 1909.45 1714.22 1977.56 1835.12 1977.56C1919.4 1978.42 1984.99 1941.79 2021.59 1877.1H2023.29V1961.4H2178.26V1360.28H2178.25ZM1501.31 1519.49C1501.31 1370.49 1344.66 1344.1 1257.8 1344.1C1132.63 1344.1 1002.35 1370.49 982.761 1554.4H1138.58C1143.69 1519.5 1158.16 1470.95 1238.2 1470.95C1279.92 1470.95 1344.66 1474.38 1344.66 1540.8C1344.66 1574.84 1313.14 1585.07 1287.59 1588.47L1142.85 1609.76C1039.82 1624.24 963.19 1684.68 963.19 1802.2C963.19 1926.5 1058.56 1977.59 1149.66 1977.59C1260.35 1977.59 1312.28 1927.36 1348.05 1890.76C1351.45 1923.97 1354.01 1932.48 1363.39 1961.43L1502.17 1960.57C1502.17 1894.16 1501.32 1845.62 1501.32 1844.78V1519.49H1501.31ZM815.023 1149.95H654.095V1359.41H570.647V1472.66H653.239V1837.95C653.239 1915.41 677.933 1968.23 817.578 1968.23H838.875C864.412 1968.23 889.95 1966.5 914.657 1965.67V1845.6C903.581 1846.45 891.675 1848.15 881.442 1848.15C815.879 1848.15 814.167 1834.52 814.167 1798.75L815.023 1472.65H915.5V1359.4H815.023V1149.95ZM496.577 1149.1H322.873L322.017 1960.56H495.721L496.577 1149.1Z" fill="#FFF22D"/>
<path fill-rule="evenodd" clip-rule="evenodd" d="M1344.66 1745.98V1668.51C1328.47 1681.27 1301.21 1691.48 1234.8 1700.85C1174.35 1711.06 1124.96 1726.39 1124.96 1791.97C1124.96 1846.45 1169.24 1864.34 1199.89 1864.34C1271.43 1864.35 1344.66 1819.22 1344.66 1745.98Z" fill="#33348E"/>
</svg>
