<svg width="100" height="100" viewBox="0 0 100 100" fill="none" xmlns="http://www.w3.org/2000/svg">
<path fill-rule="evenodd" clip-rule="evenodd" d="M21.0759 4.41198L79.0108 4.44622C88.1047 4.44622 95.5981 11.9391 95.5634 21.0672V79.0016C95.5634 88.1302 88.0705 95.5889 78.9429 95.5889L20.9737 95.5547C11.8456 95.5214 4.38696 88.0628 4.38696 78.9342L4.45492 20.9988C4.45492 11.8712 11.9141 4.37774 21.0759 4.41198V4.41198Z" fill="#33348E"/>
<path fill-rule="evenodd" clip-rule="evenodd" d="M82.7113 45.9982H76.104L73.3793 51.1752H78.011L82.7113 45.9982ZM87.1049 54.4115H80.6678V68.3073C80.6678 72.565 77.8061 73.7909 75.6957 73.7909C73.6853 73.7909 71.4711 73.0412 71.5059 69.3282V54.4109H65.0688L65.0345 70.2481C65.0345 76.3781 68.5436 79.1028 73.3798 79.1028C76.7509 79.137 79.3744 77.672 80.8384 75.0842H80.9064V78.4564H87.1054V54.4115H87.1049V54.4115ZM60.0271 60.7796C60.0271 54.8197 53.7612 53.764 50.2869 53.764C45.28 53.764 40.0688 54.8197 39.2854 62.1762H45.5181C45.7225 60.7801 46.3015 58.8383 49.503 58.8383C51.1719 58.8383 53.7612 58.9753 53.7612 61.632C53.7612 62.9938 52.5005 63.4031 51.4785 63.5391L45.6888 64.3904C41.5675 64.9699 38.5025 67.3874 38.5025 72.0882C38.5025 77.0603 42.3172 79.1038 45.9612 79.1038C50.3891 79.1038 52.4663 77.0945 53.8971 75.6305C54.033 76.9591 54.1352 77.2995 54.5103 78.4574L60.0619 78.4232C60.0619 75.7664 60.0277 73.8251 60.0277 73.7914V60.7796H60.0271V60.7796ZM32.5759 45.9982H26.1387V54.3767H22.8008V58.9068H26.1045V73.518C26.1045 76.6167 27.0922 78.7293 32.6781 78.7293H33.5299C34.5514 78.7293 35.5729 78.6603 36.5612 78.627V73.8241C36.1182 73.8583 35.6419 73.9263 35.2326 73.9263C32.6101 73.9263 32.5416 73.381 32.5416 71.9502L32.5759 58.9063H36.5949V54.3762H32.5759V45.9982V45.9982ZM19.838 45.964H12.8898L12.8556 78.4226H19.8038L19.838 45.964V45.964Z" fill="#FFF22D"/>
<path fill-rule="evenodd" clip-rule="evenodd" d="M53.7822 69.839V66.7404C53.1348 67.2508 52.0443 67.6591 49.388 68.0342C46.9699 68.4424 44.9943 69.0556 44.9943 71.6785C44.9943 73.8579 46.7655 74.5733 47.9914 74.5733C50.8531 74.5738 53.7822 72.7685 53.7822 69.839V69.839Z" fill="#33348E"/>
</svg>
